<?xml version="1.0" standalone="no"?>
<!DOCTYPE svg PUBLIC "-//W3C//DTD SVG 20010904//EN"
 "http://www.w3.org/TR/2001/REC-SVG-20010904/DTD/svg10.dtd">
<svg version="1.0" xmlns="http://www.w3.org/2000/svg"
 width="500.000000pt" height="500.000000pt" viewBox="0 0 500.000000 500.000000"
 preserveAspectRatio="xMidYMid meet">

<g transform="translate(0.000000,500.000000) scale(0.100000,-0.100000)"
fill="#000000" stroke="none">
<path d="M3865 4519 c-193 -72 -449 -165 -570 -209 -121 -43 -380 -137 -575
-210 -195 -73 -440 -163 -545 -200 -375 -133 -424 -153 -417 -165 4 -7 88
-130 187 -273 170 -248 181 -261 195 -242 8 11 62 104 119 206 l104 187 101
48 c56 26 241 115 411 197 171 83 312 148 314 146 3 -2 -1 -10 -7 -16 -7 -7
-12 -17 -12 -24 0 -14 179 -129 188 -120 3 4 36 57 72 119 l65 112 85 42 c47
23 88 42 92 43 4 0 -43 -84 -104 -187 -61 -103 -112 -193 -115 -199 -2 -7 29
-55 70 -108 l75 -96 42 73 c23 39 127 218 230 397 103 179 224 388 269 464 45
76 80 140 79 142 -2 1 -161 -56 -353 -127z m-1352 -660 c-11 -11 -127 -90
-273 -186 -85 -55 -86 -56 -105 -120 l-20 -65 -45 86 c-46 91 -46 96 5 114 17
6 122 49 235 96 113 47 207 86 210 86 2 0 -1 -5 -7 -11z"/>
<path d="M2938 3568 c-160 -278 -553 -962 -712 -1240 -55 -98 -103 -177 -106
-177 -5 -1 -97 153 -423 709 l-156 265 -366 94 c-201 51 -368 92 -370 89 -2
-2 44 -87 104 -188 59 -102 186 -320 281 -485 174 -302 472 -815 590 -1020 35
-60 123 -213 195 -338 73 -126 136 -229 141 -230 5 0 68 101 139 225 72 123
183 316 249 429 65 112 224 386 354 609 129 223 322 554 427 735 106 182 198
340 204 353 11 20 5 31 -50 105 -34 45 -65 86 -69 90 -4 5 -54 -72 -110 -170
-57 -98 -180 -311 -275 -473 -94 -162 -209 -360 -255 -440 -45 -80 -118 -205
-162 -278 -43 -73 -140 -240 -215 -370 -226 -396 -233 -406 -248 -385 -7 10
-81 137 -165 283 -84 146 -206 355 -270 465 -64 110 -188 324 -275 475 -87
151 -169 292 -182 313 -14 22 -23 40 -21 42 8 8 159 -32 171 -45 8 -8 69 -112
137 -230 68 -118 180 -312 249 -430 70 -118 181 -308 246 -422 66 -115 122
-208 125 -208 3 0 30 44 60 98 30 53 129 225 220 382 92 157 195 335 230 395
34 61 153 265 263 455 110 190 238 410 283 489 46 79 84 147 84 150 -1 5 -60
49 -159 119 -16 11 -31 -11 -163 -240z"/>
<path d="M1725 785 c68 -183 89 -235 92 -231 5 5 -97 280 -108 291 -6 6 1 -21
16 -60z"/>
<path d="M1997 843 c-2 -4 -33 -84 -67 -178 -35 -93 -67 -174 -71 -179 -5 -6
-14 4 -20 23 -6 17 -13 30 -16 28 -2 -3 3 -22 12 -43 9 -22 19 -34 24 -28 11
11 151 377 146 382 -1 2 -5 0 -8 -5z"/>
<path d="M2080 655 l0 -195 123 2 122 2 -118 3 -118 4 3 92 3 92 105 6 105 5
-107 2 -108 2 0 85 0 84 113 4 112 3 -117 2 -118 2 0 -195z"/>
<path d="M2412 653 c1 -110 4 -152 5 -95 l4 102 47 0 48 0 63 -102 c35 -57 61
-96 58 -86 -3 9 -28 53 -56 98 -50 80 -50 81 -28 90 16 6 1 9 -55 9 l-78 1 0
86 0 86 86 -3 c76 -4 88 -7 105 -28 23 -28 25 -78 3 -111 l-16 -25 21 24 c13
15 21 37 21 60 -1 69 -37 91 -149 91 l-81 0 2 -197z"/>
<path d="M2690 845 c0 -5 5 -17 10 -25 5 -8 10 -10 10 -5 0 6 -5 17 -10 25 -5
8 -10 11 -10 5z"/>
<path d="M2976 819 c-7 -19 -39 -103 -71 -186 -32 -84 -61 -150 -65 -148 -4 3
-27 57 -50 120 -24 63 -45 114 -47 112 -7 -8 90 -258 99 -255 11 4 160 380
153 387 -3 2 -11 -11 -19 -30z"/>
<path d="M3070 655 l0 -195 123 2 122 2 -118 3 -118 4 3 92 3 92 100 6 100 5
-102 2 -103 2 0 85 0 84 113 4 112 3 -117 2 -118 2 0 -195z"/>
<path d="M2720 765 c0 -5 5 -17 10 -25 5 -8 10 -10 10 -5 0 6 -5 17 -10 25 -5
8 -10 11 -10 5z"/>
</g>
</svg>
